#!OML:ASF H:\Terrain\Patient Classification 1\Animal2\Wednesday\Animal2.ASF
:FULLY-SPECIFIED
:DEGREES
2950
root -4.39681 17.6215 7.57049 218.171 -190.799 -172.961
lowerback 18.0612 0.266259 3.90732
upperback -8.19848 1.49364 0.297118
thorax -19.947 0.170707 -2.38212
lowerneck 12.0615 14.7076 15.8318
upperneck -38.7432 17.1158 -30.7536
head -9.13432 10.3975 -16.0862
rclavicle -4.77083e-014 -6.36111e-015
rhumerus -45.0807 -6.28712 -68.0737
rradius 50.2061
rwrist 3.94765
rhand -12.2979 18.8231
rfingers 7.12502
rthumb 13.7699 -10.7013
lclavicle -4.77083e-014 -6.36111e-015
lhumerus -54.5169 3.32975 66.1058
lradius 64.8755
lwrist 24.9741
lhand -36.9434 18.0161
lfingers 7.12502
lthumb -10.02 47.7576
rfemur -62.0296 -0.664021 12.6906
rtibia 45.6586
rfoot -19.9266 -4.8592
rtoes 30.7006
lfemur -55.1069 -3.79242 -11.499
ltibia 43.4825
lfoot -12.6473 -5.8729
ltoes -28.1705
2951
root -4.39727 17.6109 7.60129 217.772 -190.818 -172.872
lowerback 18.087 0.211653 3.98217
upperback -8.21102 1.42822 0.231916
thorax -19.9832 0.124316 -2.48048
lowerneck 12.2958 14.6593 15.8732
upperneck -38.9066 17.0888 -30.7023
head -9.25272 10.3671 -16.1516
rclavicle 2.54444e-014 -1.59028e-015
rhumerus -44.9876 -6.06741 -68.1719
rradius 50.8349
rwrist 4.23244
rhand -12.218 18.9586
rfingers 7.12502
rthumb 13.8469 -10.5605
lclavicle 2.54444e-014 -1.59028e-015
lhumerus -54.8685 3.36399 65.9482
lradius 64.2464
lwrist 25.4793
lhand -37.0068 18.2731
lfingers 7.12502
lthumb -10.0812 48.0116
rfemur -61.6968 -0.724076 12.7021
rtibia 46.122
rfoot -20.1224 -4.80241
rtoes 30.8596
lfemur -55.22 -3.75416 -11.4415
ltibia 44.5142
lfoot -12.8955 -5.32412
ltoes -29.0529
2952
root -4.39794 17.6071 7.63211 217.173 -190.85 -172.812
lowerback 18.2092 0.189001 4.01674
upperback -8.1048 1.40641 0.223809
thorax -19.925 0.11175 -2.50379
lowerneck 12.2678 14.6718 15.8493
upperneck -38.9403 17.1103 -30.6353
head -9.26762 10.3648 -16.1207
rclavicle 4.77083e-015 9.54166e-015
rhumerus -44.7964 -5.86172 -68.1637
rradius 51.5477
rwrist 4.14522
rhand -12.2801 19.0176
rfingers 7.12502
rthumb 13.7871 -10.5056
lclavicle 4.77083e-015 9.54166e-015
lhumerus -55.025 3.3794 65.9767
lradius 63.5147
lwrist 25.9435
lhand -37.1766 18.087
lfingers 7.12502
lthumb -10.2451 47.8175
rfemur -61.0844 -0.723971 12.7392
rtibia 46.5582
rfoot -20.3181 -4.98522
rtoes 29.4582
lfemur -55.0413 -3.76939 -11.3493
ltibia 45.405
lfoot -13.2807 -4.68111
ltoes -30.0199
2953
root -4.39668 17.6024 7.65784 216.502 -190.925 -172.937
lowerback 18.3771 0.21833 4.19213
upperback -7.96622 1.51022 0.294144
thorax -19.8455 0.144448 -2.55752
lowerneck 12.0302 14.7047 15.6665
upperneck -38.8319 17.1186 -30.4895
head -9.22624 10.3629 -15.9749
rclavicle 3.89618e-014 -4.77083e-015
rhumerus -44.4834 -5.72162 -68.084
rradius 52.1568
rwrist 3.69796
rhand -12.5953 18.9415
rfingers 7.12502
rthumb 13.4833 -10.602
lclavicle 3.89618e-014 -4.77083e-015
lhumerus -55.0812 3.49368 66.103
lradius 62.7061
lwrist 25.9347
lhand -37.4857 18.0506
lfingers 7.12502
lthumb -10.5432 47.7662
rfemur -60.4497 -0.618831 12.9327
rtibia 46.978
rfoot -20.4826 -4.9412
rtoes 29.058
lfemur -54.781 -3.84136 -10.9671
ltibia 46.1559
lfoot -13.7884 -4.02235
ltoes -31.2525
2954
root -4.39181 17.5888 7.68247 216.083 -190.888 -172.95
lowerback 18.4241 0.248281 4.30152
upperback -8.00026 1.58049 0.266491
thorax -19.9142 0.155216 -2.67842
lowerneck 11.5992 14.7649 15.6484
upperneck -38.2817 17.1931 -30.3467
head -8.94477 10.3793 -15.7172
rclavicle 7.95139e-015 9.54166e-015
rhumerus -44.3722 -5.70259 -68.0286
rradius 52.5743
rwrist 3.51827
rhand -13.0069 19.1137
rfingers 7.12502
rthumb 13.0865 -10.4557
lclavicle 7.95139e-015 9.54166e-015
lhumerus -55.3039 3.48536 66.0845
lradius 61.8257
lwrist 25.7199
lhand -37.2201 17.5679
lfingers 7.12502
lthumb -10.287 47.2963
rfemur -60.1429 -0.549628 12.9384
rtibia 47.4124
rfoot -20.6684 -4.61796
rtoes 30.1813
lfemur -54.7121 -3.89987 -10.6869
ltibia 46.7635
lfoot -14.3144 -3.34304
ltoes -32.6532
2955
root -4.38927 17.5708 7.71164 215.89 -190.744 -172.773
lowerback 18.3204 0.256332 4.15651
upperback -8.14664 1.5339 0.162876
thorax -20.0417 0.138004 -2.70314
lowerneck 11.4949 14.768 15.7955
upperneck -37.9281 17.2346 -30.3024
head -8.77346 10.3756 -15.6231
rclavicle -3.10104e-014 -3.18055e-015
rhumerus -44.4802 -5.70352 -68.0381
rradius 53.1972
rwrist 3.44247
rhand -13.2286 19.3937
rfingers 7.12502
rthumb 12.8729 -10.1893
lclavicle -3.10104e-014 -3.18055e-015
lhumerus -55.7694 3.40226 65.9572
lradius 61.1004
lwrist 25.7786
lhand -36.7919 17
lfingers 7.12502
lthumb -9.87383 46.7485
rfemur -60.0703 -0.489489 12.6978
rtibia 47.8766
rfoot -20.8672 -4.51663
rtoes 30.9001
lfemur -54.8069 -3.9795 -10.602
ltibia 47.2338
lfoot -14.5212 -2.99479
ltoes -31.3567
